<?xml version="1.0" encoding="UTF-8" standalone="no"?>
<!-- Created with Inkscape (http://www.inkscape.org/) -->

<svg
   xmlns:dc="http://purl.org/dc/elements/1.1/"
   xmlns:cc="http://creativecommons.org/ns#"
   xmlns:rdf="http://www.w3.org/1999/02/22-rdf-syntax-ns#"
   xmlns:svg="http://www.w3.org/2000/svg"
   xmlns="http://www.w3.org/2000/svg"
   xmlns:sodipodi="http://sodipodi.sourceforge.net/DTD/sodipodi-0.dtd"
   xmlns:inkscape="http://www.inkscape.org/namespaces/inkscape"
   width="1024"
   height="1024"
   viewBox="0 0 270.93333 270.93335"
   version="1.1"
   id="svg4553"
   inkscape:version="0.92.5 (2060ec1f9f, 2020-04-08)"
   sodipodi:docname="etherparking.svg"
   inkscape:export-filename="/home/noble/Documents/Websites/Free Parking Protocol/website/landingpage/src/assets/img/favicon/safari-pinned-tab.svg.png"
   inkscape:export-xdpi="14.062501"
   inkscape:export-ydpi="14.062501">
  <defs
     id="defs4547" />
  <sodipodi:namedview
     id="base"
     pagecolor="#ffffff"
     bordercolor="#666666"
     borderopacity="1.0"
     inkscape:pageopacity="0.0"
     inkscape:pageshadow="2"
     inkscape:zoom="0.49497474"
     inkscape:cx="-700.89596"
     inkscape:cy="548.84941"
     inkscape:document-units="mm"
     inkscape:current-layer="layer1"
     showgrid="false"
     inkscape:window-width="2560"
     inkscape:window-height="1416"
     inkscape:window-x="0"
     inkscape:window-y="0"
     inkscape:window-maximized="1"
     fit-margin-top="0"
     fit-margin-left="0"
     fit-margin-right="0"
     fit-margin-bottom="0"
     showborder="true"
     units="px" />
  <metadata
     id="metadata4550">
    <rdf:RDF>
      <cc:Work
         rdf:about="">
        <dc:format>image/svg+xml</dc:format>
        <dc:type
           rdf:resource="http://purl.org/dc/dcmitype/StillImage" />
        <dc:title></dc:title>
      </cc:Work>
    </rdf:RDF>
  </metadata>
  <g
     inkscape:label="Layer 1"
     id="layer1"
     transform="translate(69.659684,121.63955)"
     style="display:inline"
     inkscape:groupmode="layer">
    <g
       transform="matrix(0.16464595,0,0,0.16305771,-93.20054,67.56236)"
       id="g32"
       inkscape:export-xdpi="96"
       inkscape:export-ydpi="96"
       style="display:inline">
      <g
         id="g30"
         style="display:inline"
         transform="translate(99.59598,-16.761046)">
        <g
           id="g28"
           inkscape:label="backcircle"
           style="display:inline">
          <path
             d="M 1325.123,-162.26528 909.75326,494.01797 c -9.47538,14.9335 -25.93231,23.9854 -43.61263,23.9854 -17.68031,0 -34.14312,-9.0519 -43.61262,-23.9854 L 407.15822,-162.26528 c -12.40445,-19.56833 -10.29881,-44.99482 5.15235,-62.25753 15.45116,-17.26272 40.48945,-22.16215 61.3047,-11.99274 L 866.14063,-42.849629 1258.666,-236.51555 c 20.8152,-10.16941 45.8535,-5.26998 61.3047,11.99274 15.4512,17.26271 17.5568,42.6892 5.1523,62.25753 z m 7.7933,-271.0276 c 0,2.07624 -0.5176,3.63488 -0.5176,5.71111 -0.6235,3.17611 -1.4881,6.30516 -2.5938,9.34598 -0.5176,2.07623 -1.5587,3.63488 -2.0763,5.71111 -1.5998,2.96436 -3.5172,5.75228 -5.7111,8.30492 -0.5058,1.15281 -1.2116,2.20563 -2.0762,3.11729 0,0.51759 -1.0411,0.51759 -1.0411,1.04106 -4.1524,4.47595 -9.0754,8.16965 -14.5395,10.90463 l -97.0947,48.28855 -318.27506,156.79958 c -14.44539,6.92273 -31.24934,6.92273 -45.68885,0 L 427.9323,-389.15678 c -0.51759,-0.51759 -1.04106,-0.51759 -1.55864,-1.04106 -1.55865,-0.51759 -2.59382,-2.07623 -4.15247,-3.11729 -3.09376,-1.6057 -5.89932,-3.71134 -8.30492,-6.23457 l -1.55865,-1.55865 c -0.8646,-0.91166 -1.5704,-1.96448 -2.07623,-3.11729 -2.19386,-2.55853 -4.11129,-5.34056 -5.7111,-8.30492 -0.51759,-2.07623 -1.55865,-3.629 -2.07624,-5.71111 -1.10575,-3.04083 -1.97624,-6.16988 -2.59381,-9.34598 0,-2.07623 -0.51759,-3.63488 -0.51759,-5.71111 0,-1.04105 -0.51759,-1.55864 -0.51759,-2.59382 0.0882,-2.62322 0.43524,-5.23469 1.04106,-7.78733 0.51758,-1.55865 0.51758,-3.63488 1.04105,-5.19352 1.12929,-5.11706 3.05847,-10.02238 5.71111,-14.53951 h 0.51759 l 415.36979,-656.28316 c 0.51759,-1.0411 1.55864,-1.0411 2.59382,-2.0763 9.31069,-13.5102 24.60893,-21.6445 41.0188,-21.8033 16.46281,-0.065 31.86692,8.1226 41.0188,21.8092 140.22752,217.34591 279.09982,438.95508 417.96362,658.35945 h 0.5176 c 2.6585,4.51712 4.5818,9.42244 5.7111,14.5395 0.5176,1.55864 0.5176,3.63487 1.041,5.19352 0.6,2.55853 0.947,5.16411 1.0411,7.78734 -0.018,1.03517 -0.5352,1.55276 -0.5352,2.59381 z"
             id="path14"
             inkscape:connector-curvature="0"
             style="display:inline;fill:#000000;fill-opacity:1;stroke-width:5.88167524"
             sodipodi:nodetypes="ccsccscccscscccccccccccccccccccsccccccccccccccs" />
          <path
             inkscape:connector-curvature="0"
             id="polygon2"
             d="m 1108.8253,-14.332149 a 15.684468,15.684468 0 0 0 -20.1983,-22.45394 l -161.82659,79.96214 a 15.684468,15.684468 0 0 0 -8.73635,14.06156 V 232.77221 a 15.684468,15.684468 0 0 0 28.93473,8.39244 z"
             style="display:inline;fill:#ffffff;fill-opacity:1;stroke-width:5.88167524" />
          <path
             inkscape:connector-curvature="0"
             id="polygon4"
             d="m 814.22309,57.237611 a 15.684468,15.684468 0 0 0 -8.73635,-14.06156 l -161.82659,-79.96214 a 15.684468,15.684468 0 0 0 -20.19832,22.45394 L 785.28836,241.16465 a 15.684468,15.684468 0 0 0 28.93473,-8.39244 z"
             style="display:inline;fill:#ffffff;fill-opacity:1;stroke-width:5.88167524" />
          <path
             inkscape:connector-curvature="0"
             id="polygon6"
             d="m 918.06406,-682.91582 a 15.684468,15.684468 0 0 0 8.73635,14.06155 l 161.82659,79.96215 a 15.684468,15.684468 0 0 0 20.1983,-22.45395 l -161.82651,-255.4968 a 15.684468,15.684468 0 0 0 -28.93473,8.39245 z"
             style="display:inline;fill:#be1e2d;fill-opacity:1;stroke-width:5.88167524" />
          <path
             inkscape:connector-curvature="0"
             id="polygon8"
             d="m 1135.6382,-421.82496 a 15.684468,15.684468 0 0 0 0,-28.13523 L 873.08225,-579.40904 a 15.684468,15.684468 0 0 0 -13.87146,-6e-5 l -262.56123,129.44885 a 15.684468,15.684468 0 0 0 0,28.13535 l 262.56123,129.44885 a 15.684468,15.684468 0 0 0 13.87146,-6e-5 z"
             style="display:inline;fill:#be1e2d;fill-opacity:1;stroke-width:5.88167524" />
          <path
             inkscape:connector-curvature="0"
             id="polygon12"
             d="m 623.46183,-611.34607 a 15.684468,15.684468 0 0 0 20.19832,22.45395 l 161.82659,-79.96215 a 15.684468,15.684468 0 0 0 8.73635,-14.06155 v -175.5346 a 15.684468,15.684468 0 0 0 -28.93473,-8.39245 z"
             style="display:inline;fill:#be1e2d;fill-opacity:1;stroke-width:5.88167524" />
          <path
             sodipodi:nodetypes="sccscscssccccs"
             d="m 1226.0219,-319.47681 c -3.0966,-167.01111 -120.6321,-309.96741 -283.88961,-345.30098 -22.95847,-4.83174 -46.32931,-7.44368 -69.78831,-7.79934 h -5.19875 c -0.60047,0 -2.39896,-0.19939 -2.99925,-0.19939 -197.13905,1.05576 -356.73366,160.53027 -357.93887,357.66709 -1.20504,197.13681 156.42779,358.550391 353.53973,362.016351 h 5.39814 c 0.60047,0 1.20063,0.19938 1.59935,0.19938 h 1.3999 c 1.40219,0.0294 2.80662,-0.0294 4.19975,-0.19938 24.6144,-0.34879 49.13357,-3.16241 73.18845,-8.39968 2.99912,-0.79962 6.19993,-1.60153 9.59789,-2.39885 C 1116.9653,-5.2485487 1229.1185,-152.46805 1226.0219,-319.47687 Z"
             id="path7727"
             inkscape:connector-curvature="0"
             style="display:inline;fill:#000000;fill-opacity:1;stroke-width:2.2652638" />
          <path
             style="display:inline;fill:#ffffff;fill-opacity:1;stroke-width:1.9388572"
             inkscape:connector-curvature="0"
             id="path7729"
             d="m 1174.1661,-318.51939 c -2.6504,-142.94618 -103.2499,-265.30361 -242.98337,-295.54589 -19.65032,-4.13553 -39.65361,-6.37109 -59.73235,-6.67547 h -4.44967 c -0.51406,0 -2.05329,-0.17057 -2.56705,-0.17057 -168.73292,0.90361 -305.33124,137.39911 -306.36277,306.13008 -1.03141,168.73103 133.88787,306.8861213 302.59749,309.8526613 h 4.62029 c 0.51406,0 1.02765,0.17115 1.36891,0.17115 h 1.19821 c 1.20016,0.0294 2.40219,-0.0294 3.59459,-0.17115 21.06763,-0.29879 42.0538,-2.70669 62.64254,-7.1893503 2.567,-0.68422 5.30657,-1.37073 8.21494,-2.05318 138.51584,-35.39774 234.50864,-161.404051 231.85824,-304.348281 z"
             sodipodi:nodetypes="sccscscssccccs" />
          <path
             sodipodi:nodetypes="sccscscssccccs"
             d="m 963.68518,-314.63234 c -0.83932,-45.26719 -32.69648,-84.01449 -76.94632,-93.5914 -6.22274,-1.30967 -12.5572,-2.01758 -18.91562,-2.11399 h -1.40907 c -0.1629,0 -0.65024,-0.0541 -0.81295,-0.0541 -53.43314,0.28616 -96.69016,43.5106 -97.01686,96.94316 -0.32666,53.43262 42.39873,97.18262 95.82451,98.12204 h 1.46314 c 0.16289,0 0.32534,0.0541 0.43363,0.0541 h 0.37949 c 0.37993,0.009 0.76074,-0.009 1.13833,-0.0541 6.67156,-0.0947 13.31732,-0.85714 19.83721,-2.27665 0.81291,-0.2166 1.68045,-0.43407 2.60147,-0.65019 43.86424,-11.2095 74.26257,-51.11238 73.42326,-96.37895 z"
             id="path7731"
             inkscape:connector-curvature="0"
             style="display:inline;fill:#000000;fill-opacity:1;stroke-width:0.61398405" />
          <path
             style="display:inline;fill:#ffffff;fill-opacity:1;stroke-width:0.3485209"
             inkscape:connector-curvature="0"
             id="path7733"
             d="m 921.51143,-313.85358 c -0.47641,-25.69539 -18.55974,-47.68986 -43.67767,-53.12605 -3.53224,-0.74345 -7.12795,-1.14528 -10.73724,-1.19998 h -0.79984 c -0.0924,0 -0.36937,-0.0294 -0.46172,-0.0294 -30.33068,0.16233 -54.88503,24.69827 -55.07047,55.02866 -0.18528,30.33044 24.06716,55.16458 54.39367,55.69787 h 0.83055 c 0.0923,0 0.18469,0.0294 0.24586,0.0294 h 0.21526 c 0.21586,0.005 0.43172,-0.005 0.64617,-0.0294 3.78703,-0.0529 7.55942,-0.48641 11.26035,-1.29232 0.46171,-0.12292 0.95389,-0.24644 1.47671,-0.36937 24.89901,-6.36297 42.15426,-29.01336 41.67784,-54.7084 z"
             sodipodi:nodetypes="sccscscssccccs" />
        </g>
      </g>
    </g>
  </g>
</svg>
